<svg xmlns="http://www.w3.org/2000/svg" xmlns:xlink="http://www.w3.org/1999/xlink" viewBox="0 0 454.14 468.71"><defs><style>.cls-1{opacity:0.5;}.cls-2{fill:#fff;}.cls-3{fill:#84a6d7;}.cls-4{font-size:14px;font-family:Poppins-Light, Poppins;font-weight:300;}.cls-4,.cls-5{fill:#1d1d1b;}.cls-6{fill:none;stroke:#1d1d1b;stroke-miterlimit:10;}</style></defs><g id="Lag_2" data-name="Lag 2"><g class="cls-1"><circle class="cls-2" cx="230.09" cy="64.79" r="64.54"/><path class="cls-3" d="M489.35,128.07a64.4,64.4,0,1,1-4.84-24.73A64.7,64.7,0,0,1,489.35,128.07Zm0,0a64.35,64.35,0,1,0-5,24.67A64.5,64.5,0,0,0,489.35,128.07Z" transform="translate(-194.72 -63.28)"/></g><g class="cls-1"><circle class="cls-2" cx="376.6" cy="141.15" r="64.54"/><path class="cls-3" d="M635.86,204.43a64.73,64.73,0,0,1-89.36,59.92A64.8,64.8,0,1,1,631,179.71,64.52,64.52,0,0,1,635.86,204.43Zm0,0a64.35,64.35,0,1,0-5,24.68A64.6,64.6,0,0,0,635.86,204.43Z" transform="translate(-194.72 -63.28)"/></g><g class="cls-1"><circle class="cls-2" cx="376.6" cy="299.38" r="64.54"/><path class="cls-3" d="M635.86,362.67A64.79,64.79,0,1,1,511.29,337.8a64.77,64.77,0,0,1,119.72.14A64.57,64.57,0,0,1,635.86,362.67Zm0,0a64.35,64.35,0,1,0-5,24.67A64.69,64.69,0,0,0,635.86,362.67Z" transform="translate(-194.72 -63.28)"/></g><g class="cls-1"><circle class="cls-2" cx="230.09" cy="403.93" r="64.54"/><path class="cls-3" d="M489.35,467.21a64.44,64.44,0,1,1-4.84-24.73A64.7,64.7,0,0,1,489.35,467.21Zm0,0a64.35,64.35,0,1,0-5,24.67A64.5,64.5,0,0,0,489.35,467.21Z" transform="translate(-194.72 -63.28)"/></g><g class="cls-1"><circle class="cls-2" cx="83.59" cy="299.38" r="64.54"/><path class="cls-3" d="M342.85,362.67A64.79,64.79,0,1,1,218.27,337.8a64.79,64.79,0,0,1,119.73.14A64.57,64.57,0,0,1,342.85,362.67Zm0,0a64.46,64.46,0,1,0-5,24.67A64.7,64.7,0,0,0,342.85,362.67Z" transform="translate(-194.72 -63.28)"/></g><g class="cls-1"><circle class="cls-2" cx="83.59" cy="143.92" r="64.54"/><path class="cls-3" d="M342.85,207.2A64.51,64.51,0,1,1,338,182.48,64.76,64.76,0,0,1,342.85,207.2Zm0,0a64.46,64.46,0,1,0-5,24.68A64.65,64.65,0,0,0,342.85,207.2Z" transform="translate(-194.72 -63.28)"/></g></g><g id="Lag_1" data-name="Lag 1"><image width="200" height="200" transform="translate(189.56 9.4) scale(0.41)" xlink:href="3203384-200.png"/><image width="512" height="512" transform="matrix(-0.16, 0, 0, 0.16, 417.3, 234.85)" xlink:href="39850.png"/><image width="200" height="200" transform="translate(190.11 341.17) scale(0.41)" xlink:href="lawyer-icon-png-24.png"/><image width="200" height="200" transform="translate(335.9 79.39) scale(0.45)" xlink:href="hand-shake-icon-19.png"/><image width="512" height="500" transform="translate(39.75 239.91) scale(0.17)" xlink:href="experience-expert.png"/><image width="1600" height="1600" transform="translate(43.38 79.39) scale(0.05)" xlink:href="graduation-icon-vector-23.png"/></g><g id="Lag_3" data-name="Lag 3"><text class="cls-4" transform="translate(217.39 114.17)">Dig</text><path class="cls-5" d="M551.45,232.57c-2,0-3.25-1.12-3.3-2.62h1a2,2,0,0,0,2.27,1.79c1.36,0,2.16-.79,2.16-1.8,0-2.89-5.38-1.07-5.38-4.75,0-1.51,1.25-2.62,3.14-2.62a2.86,2.86,0,0,1,3.15,2.38h-1.06a2,2,0,0,0-2.13-1.54,1.85,1.85,0,0,0-2.1,1.75c0,2.83,5.37,1.09,5.37,4.74C554.6,231.23,553.53,232.57,551.45,232.57Z" transform="translate(-194.72 -63.28)"/><path class="cls-5" d="M556.77,225.65h-1.06v-.83h1.06V222.9h1v1.92h2.1v.83h-2.1v4.75c0,.94.32,1.23,1.2,1.23h.9v.84h-1c-1.33,0-2.05-.54-2.05-2.07Z" transform="translate(-194.72 -63.28)"/><path class="cls-5" d="M564.82,232.58a3.89,3.89,0,0,1-2.44-.81l-.63.7H561l1-1.08a4,4,0,0,1-1-2.74,3.71,3.71,0,0,1,3.82-3.94,3.91,3.91,0,0,1,2.47.83l.65-.72h.73l-1,1.1a4,4,0,0,1,1,2.73A3.72,3.72,0,0,1,564.82,232.58Zm-2.2-1.89,4.08-4.47a2.85,2.85,0,0,0-1.86-.65,2.78,2.78,0,0,0-2.82,3.08A3.39,3.39,0,0,0,562.62,230.69Zm5-2a3.22,3.22,0,0,0-.61-2L563,231.1a2.88,2.88,0,0,0,4.67-2.45Z" transform="translate(-194.72 -63.28)"/><path class="cls-5" d="M570.74,225.65h-1.06v-.83h1.06V222.9h1v1.92h2.1v.83h-2.1v4.75c0,.94.32,1.23,1.2,1.23h.9v.84h-1.05c-1.33,0-2-.54-2-2.07Z" transform="translate(-194.72 -63.28)"/><path class="cls-5" d="M575.73,225.65h-1.07v-.83h1.07V222.9h1v1.92h2.1v.83h-2.1v4.75c0,.94.32,1.23,1.2,1.23h.9v.84h-1.05c-1.33,0-2-.54-2-2.07Z" transform="translate(-194.72 -63.28)"/><path class="cls-5" d="M583.74,232.58a3.94,3.94,0,0,1,0-7.87,3.44,3.44,0,0,1,3.61,3.55,6.36,6.36,0,0,1,0,.77H581a2.67,2.67,0,0,0,2.76,2.73,2.37,2.37,0,0,0,2.46-1.71h1A3.37,3.37,0,0,1,583.74,232.58ZM581,228.23h5.37a2.5,2.5,0,0,0-2.66-2.68A2.64,2.64,0,0,0,581,228.23Z" transform="translate(-194.72 -63.28)"/><path class="cls-5" d="M588.44,226.87h5.45v.83h-5.45Z" transform="translate(-194.72 -63.28)"/><path class="cls-5" d="M544.94,242.45h-1.06v-.83h1.06v-.53c0-1.64.77-2.42,2.7-2.42v.84c-1.3,0-1.72.47-1.72,1.58v.53h1.78v.83h-1.78v6.82h-1Z" transform="translate(-194.72 -63.28)"/><path class="cls-5" d="M552.59,249.38a3.94,3.94,0,1,1,3.85-3.93A3.73,3.73,0,0,1,552.59,249.38Zm0-.85a3.09,3.09,0,0,0,0-6.16,3.09,3.09,0,0,0,0,6.16Z" transform="translate(-194.72 -63.28)"/><path class="cls-5" d="M559.21,249.27h-1v-7.65h1V243a2.63,2.63,0,0,1,2.62-1.5v1h-.27c-1.27,0-2.35.57-2.35,2.49Z" transform="translate(-194.72 -63.28)"/><path class="cls-5" d="M566.6,249.38a3.94,3.94,0,0,1,0-7.87,3.44,3.44,0,0,1,3.61,3.55c0,.3,0,.5,0,.77h-6.35a2.68,2.68,0,0,0,2.76,2.73,2.38,2.38,0,0,0,2.47-1.71h1A3.36,3.36,0,0,1,566.6,249.38ZM563.84,245h5.38a2.51,2.51,0,0,0-2.66-2.68A2.64,2.64,0,0,0,563.84,245Z" transform="translate(-194.72 -63.28)"/><path class="cls-5" d="M577.73,244.9c0-1.69-.92-2.56-2.32-2.56s-2.43.89-2.43,2.76v4.17h-1v-7.65h1v1.31a2.8,2.8,0,0,1,2.61-1.45,3,3,0,0,1,3.11,3.31v4.48h-1Z" transform="translate(-194.72 -63.28)"/><path class="cls-5" d="M580.64,239.45a.72.72,0,0,1,1.43,0,.72.72,0,1,1-1.43,0Zm.23,2.17h1v7.65h-1Z" transform="translate(-194.72 -63.28)"/><path class="cls-5" d="M589.8,244.9c0-1.69-.92-2.56-2.32-2.56s-2.43.89-2.43,2.76v4.17h-1v-7.65h1v1.31a2.79,2.79,0,0,1,2.61-1.45,3,3,0,0,1,3.11,3.31v4.48h-1Z" transform="translate(-194.72 -63.28)"/><path class="cls-5" d="M592.23,243.67h5.45v.83h-5.45Z" transform="translate(-194.72 -63.28)"/><text class="cls-4" transform="translate(341.92 331.11)">Retshjælp </text><path class="cls-5" d="M414.3,485.59h1V493a2.35,2.35,0,0,1-2.52,2.48,2.46,2.46,0,0,1-2.61-2.67h1c0,1,.44,1.8,1.61,1.8A1.45,1.45,0,0,0,414.3,493Z" transform="translate(-194.72 -63.28)"/><path class="cls-5" d="M424.37,495.38h-1V494a2.75,2.75,0,0,1-2.6,1.47,3,3,0,0,1-3.11-3.3v-4.47h1v4.35c0,1.7.92,2.57,2.32,2.57s2.42-.9,2.42-2.76v-4.16h1Z" transform="translate(-194.72 -63.28)"/><path class="cls-5" d="M427.58,495.38h-1v-7.64h1v1.36a2.63,2.63,0,0,1,2.62-1.5v1h-.26c-1.28,0-2.36.57-2.36,2.49Z" transform="translate(-194.72 -63.28)"/><path class="cls-5" d="M434.88,487.62a3.18,3.18,0,0,1,3,1.8v-1.68h1v7.64h-1v-1.69a3.22,3.22,0,0,1-3,1.81,4,4,0,0,1,0-7.88Zm.18.86a3.09,3.09,0,0,0,0,6.16,3.09,3.09,0,0,0,0-6.16Z" transform="translate(-194.72 -63.28)"/><path class="cls-5" d="M388.5,512.28c-2,0-3.25-1.12-3.3-2.62h1a2,2,0,0,0,2.27,1.8c1.36,0,2.16-.8,2.16-1.81,0-2.89-5.38-1.06-5.38-4.75,0-1.51,1.25-2.62,3.14-2.62a2.86,2.86,0,0,1,3.15,2.38h-1.06a2,2,0,0,0-2.13-1.54,1.85,1.85,0,0,0-2.1,1.75c0,2.83,5.37,1.1,5.37,4.74C391.65,510.94,390.58,512.28,388.5,512.28Z" transform="translate(-194.72 -63.28)"/><path class="cls-5" d="M393.82,505.36h-1.06v-.82h1.06v-1.92h1v1.92h2.1v.82h-2.1v4.75c0,.94.32,1.23,1.2,1.23h.9v.85h-1.05c-1.33,0-2.05-.55-2.05-2.08Z" transform="translate(-194.72 -63.28)"/><path class="cls-5" d="M405.15,512.19h-1v-1.35a2.76,2.76,0,0,1-2.61,1.47,3,3,0,0,1-3.1-3.3v-4.47h1v4.35c0,1.7.93,2.57,2.33,2.57s2.42-.9,2.42-2.76v-4.16h1Z" transform="translate(-194.72 -63.28)"/><path class="cls-5" d="M410.61,504.43a3.32,3.32,0,0,1,3,1.76v-4.37h1v10.37h-1v-1.71a3.19,3.19,0,0,1-3,1.82,3.95,3.95,0,0,1,0-7.87Zm.17.85a3.09,3.09,0,0,0,0,6.16,3.09,3.09,0,0,0,0-6.16Z" transform="translate(-194.72 -63.28)"/><path class="cls-5" d="M420.14,512.3a3.94,3.94,0,0,1,0-7.87,3.44,3.44,0,0,1,3.62,3.54,6.27,6.27,0,0,1,0,.77h-6.35a2.68,2.68,0,0,0,2.76,2.73,2.37,2.37,0,0,0,2.47-1.71h1A3.36,3.36,0,0,1,420.14,512.3Zm-2.76-4.36h5.38a2.49,2.49,0,0,0-2.66-2.67A2.63,2.63,0,0,0,417.38,507.94Z" transform="translate(-194.72 -63.28)"/><path class="cls-5" d="M426.53,512.19h-1v-7.65h1v1.36a2.63,2.63,0,0,1,2.61-1.5v1h-.26c-1.28,0-2.35.57-2.35,2.49Z" transform="translate(-194.72 -63.28)"/><path class="cls-5" d="M433.92,512.3a3.94,3.94,0,0,1,0-7.87,3.43,3.43,0,0,1,3.61,3.54,6.27,6.27,0,0,1,0,.77h-6.34a2.67,2.67,0,0,0,2.76,2.73,2.36,2.36,0,0,0,2.46-1.71h1A3.36,3.36,0,0,1,433.92,512.3Zm-2.76-4.36h5.38a2.5,2.5,0,0,0-2.66-2.67A2.63,2.63,0,0,0,431.16,507.94Z" transform="translate(-194.72 -63.28)"/><path class="cls-5" d="M445.05,507.82c0-1.7-.93-2.57-2.33-2.57s-2.42.9-2.42,2.76v4.18h-1v-7.65h1v1.3a2.8,2.8,0,0,1,2.61-1.44,3,3,0,0,1,3.11,3.3v4.49h-1Z" transform="translate(-194.72 -63.28)"/><path class="cls-5" d="M451.4,504.43a3.32,3.32,0,0,1,3,1.76v-4.37h1v10.37h-1v-1.71a3.2,3.2,0,0,1-3,1.82,3.94,3.94,0,0,1,0-7.87Zm.17.85a3.09,3.09,0,0,0,0,6.16,3.09,3.09,0,0,0,0-6.16Z" transform="translate(-194.72 -63.28)"/><path class="cls-5" d="M460.94,512.3a3.94,3.94,0,0,1,0-7.87,3.43,3.43,0,0,1,3.61,3.54,6.27,6.27,0,0,1,0,.77h-6.34a2.67,2.67,0,0,0,2.76,2.73,2.36,2.36,0,0,0,2.46-1.71h1A3.36,3.36,0,0,1,460.94,512.3Zm-2.76-4.36h5.38a2.5,2.5,0,0,0-2.66-2.67A2.63,2.63,0,0,0,458.18,507.94Z" transform="translate(-194.72 -63.28)"/><text class="cls-4" transform="translate(34.94 335.56)">Kompetencer</text><text class="cls-4" transform="translate(56.54 169.59)">Færdig-<tspan x="-5.89" y="16.8">uddannet</tspan></text></g><g id="Lag_4" data-name="Lag 4"><path class="cls-6" d="M505.77,105.16c2,0,15.25.34,26.33,9.2a32.58,32.58,0,0,1,8.75,10.53" transform="translate(-194.72 -63.28)"/><path class="cls-5" d="M543,130.54a30.37,30.37,0,0,0-7.54-6.24l5.06-.12,3.81-3.33A30,30,0,0,0,543,130.54Z" transform="translate(-194.72 -63.28)"/><path class="cls-6" d="M638.06,259.26c1.19,1.61,9,12.35,8.59,26.53a32.18,32.18,0,0,1-3.09,13.34" transform="translate(-194.72 -63.28)"/><path class="cls-5" d="M640.35,304.24a30.49,30.49,0,0,0,.41-9.78l3.16,4,5,1A30,30,0,0,0,640.35,304.24Z" transform="translate(-194.72 -63.28)"/><path class="cls-6" d="M549.07,451.42c-.91,1.79-7,13.54-19.87,19.57a32.37,32.37,0,0,1-13.31,3.22" transform="translate(-194.72 -63.28)"/><path class="cls-5" d="M509.88,473.62a30.19,30.19,0,0,0,8.92-4l-2.11,4.59,1.31,4.89A30.18,30.18,0,0,0,509.88,473.62Z" transform="translate(-194.72 -63.28)"/><path class="cls-6" d="M335.59,475.1c-2,0-15.25-.06-26.49-8.72A32.46,32.46,0,0,1,300.16,456" transform="translate(-194.72 -63.28)"/><path class="cls-5" d="M297.94,450.4a30.15,30.15,0,0,0,7.64,6.1l-5.05.22-3.75,3.39A30.07,30.07,0,0,0,297.94,450.4Z" transform="translate(-194.72 -63.28)"/><path class="cls-6" d="M199.64,311.1c-.88-1.8-6.52-13.79-3.56-27.66a32.3,32.3,0,0,1,5.49-12.54" transform="translate(-194.72 -63.28)"/><path class="cls-5" d="M205.67,266.47a30.2,30.2,0,0,0-2.2,9.53l-2.38-4.47-4.68-1.91A30.15,30.15,0,0,0,205.67,266.47Z" transform="translate(-194.72 -63.28)"/><path class="cls-6" d="M303.78,123.15c1.16-1.64,8.92-12.38,22.49-16.49a32.4,32.4,0,0,1,13.64-1.25" transform="translate(-194.72 -63.28)"/><path class="cls-5" d="M345.76,106.85a30.42,30.42,0,0,0-9.4,2.68l2.76-4.23-.59-5A30,30,0,0,0,345.76,106.85Z" transform="translate(-194.72 -63.28)"/></g></svg>